<svg width="1300" height="1000" viewBox="0 0 344 265" xmlns="http://www.w3.org/2000/svg"><path fill="#e82828" d="M-1.1-6h346v272h-346z"/><path fill="#fff" stroke="#000" stroke-width=".88" d="M16 10h55v96H16z"/><path d="M21 28h26M21 98h42M21 87h36M21 76h42M21 65h31M21 51h42m-42-7.9h21m-21-7.9h42" fill="none" stroke="#000" stroke-linecap="round" stroke-width="4.4"/><path d="M164 246h45m-34-11h34" fill="none" stroke="#fff" stroke-linecap="round" stroke-width="7.6"/><path d="M239 225c29-.17-7.7-21 7 4s14-17 .047 8.1c-14 25 22 3.9-7 4.1s7.7 21-7-4-14 17-.047-8.1c14-25-22-3.9 7-4.1z" fill="#fff"/><path d="M20 118h37m-36 61h42m-42-11h36m-36-11h26m-26-11h36m-36-13h31m-31-7.9h26" fill="none" stroke="#fff" stroke-linecap="round" stroke-width="4.4"/><path d="M173 102c-3.4-123 96-26-27-21-105 4.9-79 56 20 21 116-41 55 83 11-32-37-98-78-58-14 26 75 98-62 78 34 .77 82-66 31-92-29-5.1-70 102-93-35 9.8 33 88 58 97 .89-4-29-118-35 4.5-99-28 19-28 101 29 92 26-13z" fill="#fff" opacity=".56"/><path fill="#fff" d="M18 221h74v31H18z"/><g fill="none" stroke-linecap="round"><path d="M21 20l4.8-4.8 4.8 4.8 4.7-4.7 5.1 5.1 4.9-4.9 4.7 4.7" stroke="#000" stroke-width="2.4"/><path d="M89 79l155-41" stroke="#020202" stroke-dasharray="18, 18" stroke-width="18"/><path d="M89 75l155-41" stroke="#fefefe" stroke-dasharray="18, 18" stroke-width="18"/><path d="M96 154l155-41" stroke="#020202" stroke-dasharray="36, 36" stroke-width="36"/><path d="M96 148l155-41" stroke="#fefefe" stroke-dasharray="36, 36" stroke-width="36"/></g><path fill-opacity=".26" d="M-3.3-6h9.4v272h-9.4z"/><path d="M78 245l-15 .023M57.7 245l-27 .023m53-19v18m-5.3-18v13m-5.3-13v13m-5.3-13v13m-5.3-13v13m-5.3-13v13m-5.3-13v13m-5.3-13v13m-5.3-13v13m-5.3-13v13m-5.3-13v13m-5.3-13v18" fill="none" stroke="#0c0c0c" stroke-linecap="round" stroke-width="3.7"/></svg>