<svg width="1300" height="1000" viewBox="0 0 344 265" xmlns="http://www.w3.org/2000/svg"><path d="M-1.1-6h346v272h-346z" fill="#e82828"/><path d="M161 175c-23-2.7-49-11-60-33-12-19-18-42-11-64 9-36 48-64 85-57 20 3.8 43 5 56 23 24 35 16 84-12 110-15 14-37 23-58 21zm60-43s1.4-20 4.7-30c3.4-9.5 9.9-20 3.5-30-5.7-9.8-11-21-22-25-8.6-5.3-21-3.7-26-13-12-6.8-22 6.2-33 7.5-14-.89-29 .48-36 15-5.4 10-16 20-12 33 4.1 9.2 9.6 19 8.9 29 3 16 23 40 23 40 27 3.2 46 15 89-26zm-94-62c17-24 56-26 75-3.6 19 21 13 58-12 73-9.1 5-20 4.5-42 2.3s-42-45-21-72zm71 37c8.6-8.3 4.2-30-9.6-29-12 1.2-19-7.9-29-12-11-5-23 4.4-22 16 4.7 12-6.7 19-7.9 30 2.3 15 18 27 33 21 16-4.6 22-17 36-26zm-38 17c-14 .25-17-18-11-28 3-12 21-20 29-7.3 8.4 12-2.8 25-15 27-2.6 1.7-3.5 4.8-3.2 7.7zm9.3-20c13-10-19-18-9.6-2.7 2.1 2.8 6.4 5 9.6 2.7z" fill="#fff"/><path d="M16 10h55v96H16z" fill="#fff" stroke="#000" stroke-width=".88"/><g fill="none" stroke-linecap="round"><path d="M21 28h26M21 98h42M21 87h36M21 76h42M21 65h31M21 51h42m-42-7.9h21m-21-7.9h42" stroke="#000" stroke-width="4.4"/><path d="M169 246h45m-34-11h34" stroke="#fff" stroke-width="7.6"/><path d="M21 118h36m-36 50h36m-36-11h26m-26-11h36m-36-13h31m-31-7.4h26" stroke="#fff" stroke-width="4.4"/></g><path d="M18 221h74v31H18z" fill="#fff"/><path d="M21 20l7.3-4.8 7.3 4.8 7.1-4.7 7.8 5.1 7.5-4.9 7.2 4.7" fill="none" stroke="#000" stroke-linecap="round" stroke-width="2.4"/><path d="M-3.3-6h9.4v272h-9.4z" fill-opacity=".26"/><path d="M78 245l-15 .023M57.7 245l-27 .023m53-19v18m-5.3-18v13m-5.3-13v13m-5.3-13v13m-5.3-13v13m-5.3-13v13m-5.3-13v13m-5.3-13v13m-5.3-13v13m-5.3-13v13m-5.3-13v13m-5.3-13v18" fill="none" stroke="#0c0c0c" stroke-linecap="round" stroke-width="3.7"/><path d="M224 221h74v31h-74z" fill="#fff"/></svg>